<?xml version="1.0" encoding="UTF-8" standalone="no"?>
<!-- Created with Inkscape (http://www.inkscape.org/) -->

<svg
   width="64"
   height="64"
   viewBox="0 0 64 64"
   version="1.1"
   id="svg828"
   inkscape:version="1.2.2 (732a01da63, 2022-12-09)"
   sodipodi:docname="ico_researchgate.svg"
   xmlns:inkscape="http://www.inkscape.org/namespaces/inkscape"
   xmlns:sodipodi="http://sodipodi.sourceforge.net/DTD/sodipodi-0.dtd"
   xmlns="http://www.w3.org/2000/svg"
   xmlns:svg="http://www.w3.org/2000/svg">
  <sodipodi:namedview
     id="namedview830"
     pagecolor="#ffffff"
     bordercolor="#111111"
     borderopacity="1"
     inkscape:pageshadow="0"
     inkscape:pageopacity="0"
     inkscape:pagecheckerboard="1"
     inkscape:document-units="px"
     showgrid="false"
     units="px"
     inkscape:zoom="10.618968"
     inkscape:cx="35.973365"
     inkscape:cy="31.170639"
     inkscape:window-width="1920"
     inkscape:window-height="1137"
     inkscape:window-x="1912"
     inkscape:window-y="-8"
     inkscape:window-maximized="1"
     inkscape:current-layer="layer1"
     inkscape:showpageshadow="0"
     inkscape:deskcolor="#d1d1d1" />
  <defs
     id="defs825" />
  <g
     inkscape:label="Ebene 1"
     inkscape:groupmode="layer"
     id="layer1">
    <path
       id="rect3987"
       style="fill:#000000;fill-opacity:1;stroke:none;stroke-width:2;stroke-linecap:butt;stroke-linejoin:miter;stroke-miterlimit:2;stroke-dasharray:none;stroke-opacity:1;paint-order:markers fill stroke;stop-color:#000000"
       d="M 0,0 V 64 H 64.000002 V 0 Z m 45.344759,9.161291 c 1.706075,0 3.268684,0.598052 4.320565,1.655242 0.663344,0.666689 1.355169,1.760687 1.264114,1.997983 -0.04921,0.12823 -1.950045,0.991936 -2.183469,0.991936 -0.04162,0 -0.22761,-0.257169 -0.41129,-0.570564 -0.42438,-0.72415 -1.222308,-1.410291 -1.864919,-1.602823 -0.837792,-0.251008 -2.040364,-0.189116 -2.697581,0.139113 -0.799174,0.399127 -1.53534,1.275965 -1.806452,2.151209 -0.339506,1.096598 -0.329526,7.087719 0.01411,8.205645 0.460881,1.499403 1.823088,2.354128 3.554436,2.229839 0.974775,-0.06998 1.687377,-0.389694 2.298387,-1.026209 0.549327,-0.572245 0.820528,-1.362732 0.907258,-2.655243 l 0.07057,-1.064516 h -1.550403 c -1.175758,0 -1.587381,-0.04375 -1.701612,-0.181451 -0.09343,-0.112603 -0.136697,-0.541622 -0.112903,-1.129033 l 0.03831,-0.947581 h 2.967742 2.967742 l -0.0061,2 c -0.0078,2.386903 -0.240277,3.604091 -0.903226,4.725807 -0.776146,1.313252 -1.924584,2.155665 -3.502017,2.566532 -0.916484,0.238731 -2.72057,0.233879 -3.618951,-0.0081 -2.148992,-0.578751 -3.477895,-1.97365 -4.133064,-4.342743 -0.330609,-1.195481 -0.330609,-7.397262 0,-8.592741 0.833191,-3.012693 2.884126,-4.542351 6.088751,-4.542351 z M 23.463711,19.558468 c 4.478305,0.01507 5.072997,0.172391 6.675403,0.754031 1.916522,0.695663 3.642451,2.148367 4.407258,3.709678 1.166986,2.382122 1.132298,5.286363 -0.09476,7.719759 -1.071996,2.125897 -3.230808,4.011554 -5.387097,4.705645 -0.372597,0.11993 -0.677416,0.238303 -0.677416,0.262097 0,0.14836 1.746422,2.957898 2.832662,4.556451 2.608606,3.838935 5.02824,6.664908 6.596774,7.707661 0.898334,0.597215 2.156634,1.090726 2.782258,1.090726 0.304978,0 0.315294,0.02902 0.278225,0.737903 l -0.03831,0.737904 -0.516129,0.155241 c -0.283869,0.08521 -1.125807,0.157726 -1.870968,0.159275 -2.886655,0.006 -5.076135,-1.01815 -6.913307,-3.231855 -1.904929,-2.295352 -4.623727,-6.414972 -7.072579,-10.719758 l -0.348791,-0.612903 h -1.058467 c -0.582491,-5.06e-4 -1.456601,-0.03868 -1.943549,-0.08468 l -0.887097,-0.08468 0.06452,5.149193 c 0.04308,3.5196 0.112,5.312514 0.219759,5.665323 0.219857,0.719854 0.699039,1.310175 1.195564,1.471773 0.312026,0.101563 2.964408,0.528226 3.282258,0.528226 0.02295,0 0.04234,0.333871 0.04234,0.741935 v 0.741934 h -6.322585 -6.322581 v -0.733872 c -4e-6,-0.825938 -0.06244,-0.777034 1.290323,-1.012096 1.357367,-0.235843 1.84761,-0.51055 2.205645,-1.237903 l 0.310484,-0.629032 0.03831,-11.806452 c 0.04226,-12.828295 0.03599,-12.977073 -0.639112,-13.745968 -0.374309,-0.426316 -0.763184,-0.573696 -2.30242,-0.874999 l -0.83871,-0.163308 -0.03831,-0.802418 -0.03831,-0.800404 5.135082,-0.03226 c 2.537073,-0.01598 4.46086,-0.02723 5.953629,-0.02217 z m -1.326614,2.370968 c -0.89322,0.0034 -1.599021,0.03803 -1.713709,0.110886 -0.1216,0.07723 -0.151268,1.537926 -0.129033,6.352823 l 0.02822,6.252017 0.516129,0.07863 c 1.098991,0.167057 3.943032,0.116116 4.941532,-0.08871 2.569843,-0.527161 4.282417,-2.052216 4.981855,-4.433468 0.235261,-0.800998 0.273647,-2.975297 0.06855,-3.864919 -0.506491,-2.196984 -2.133139,-3.703749 -4.534276,-4.19758 -0.661221,-0.135995 -2.670572,-0.215458 -4.159274,-0.209677 z" />
  </g>
</svg>
