<?xml version="1.0" encoding="UTF-8" standalone="no"?>
<!-- Created with Inkscape (http://www.inkscape.org/) -->

<svg
   width="64"
   height="64"
   viewBox="0 0 64 64"
   version="1.1"
   id="svg1161"
   inkscape:version="1.1.1 (3bf5ae0d25, 2021-09-20)"
   sodipodi:docname="ico_xing.svg"
   xmlns:inkscape="http://www.inkscape.org/namespaces/inkscape"
   xmlns:sodipodi="http://sodipodi.sourceforge.net/DTD/sodipodi-0.dtd"
   xmlns="http://www.w3.org/2000/svg"
   xmlns:svg="http://www.w3.org/2000/svg">
  <sodipodi:namedview
     id="namedview1163"
     pagecolor="#ffffff"
     bordercolor="#111111"
     borderopacity="1"
     inkscape:pageshadow="0"
     inkscape:pageopacity="0"
     inkscape:pagecheckerboard="1"
     inkscape:document-units="px"
     showgrid="false"
     units="px"
     inkscape:zoom="11.313709"
     inkscape:cx="52.900426"
     inkscape:cy="52.458484"
     inkscape:window-width="1920"
     inkscape:window-height="1017"
     inkscape:window-x="-8"
     inkscape:window-y="-8"
     inkscape:window-maximized="1"
     inkscape:current-layer="layer1" />
  <defs
     id="defs1158" />
  <g
     inkscape:label="Ebene 1"
     inkscape:groupmode="layer"
     id="layer1">
    <path
       style="fill:#000000;stroke:none;stroke-width:3;stroke-miterlimit:4;stroke-dasharray:none"
       d="M 40.425386,63.87126 C 40.351146,63.80454 40.06502,63.549658 39.78947,63.304324 34.919543,55.626676 33.033636,52.081536 28.742397,44.770118 c -3.646403,-6.211624 -3.539268,-6.008159 -3.60754,-6.850868 -0.03892,-0.479325 0.006,-0.944246 0.117162,-1.214872 5.416519,-9.266901 13.270407,-24.676023 19.85706,-35.5007536 0.143724,-0.20399734 0.526276,-0.55326371 0.850265,-0.776171 l 0.589081,-0.40527353 c 4.191612,0.11295514 8.442987,-0.18944701 12.612019,0.12820626 1.448278,1.13893047 1.850352,1.77294527 1.850352,2.91773837 0,0.8858411 0.006,0.8727431 -2.223458,4.850742 -5.477203,9.8317025 -9.7498,17.3584485 -15.072973,26.8977815 l -1.600936,2.870225 c 2.317664,3.984252 4.727381,8.157231 6.811839,11.740269 7.231637,12.426765 6.551097,11.176122 6.551097,12.039245 0,0.775883 -0.367659,1.58027 -0.907392,1.985091 -0.20614,0.154718 -0.448286,0.342684 -0.537988,0.417697 -0.206782,0.17308 -13.412351,0.175082 -13.605561,0.0021 z m 11.572801,-2.911781 c 0.04541,-0.04541 -0.346463,-0.820958 -0.870358,-1.723922 -3.579937,-6.170328 -8.355989,-14.391439 -8.952611,-15.41036 -3.480977,-5.944659 -3.319844,-5.637675 -3.259015,-6.209365 0.03627,-0.339171 0.396555,-1.142329 0.969283,-2.159777 1.396402,-2.480638 5.09207,-9.0803 7.899074,-14.106065 C 53.004504,12.004032 57.809331,3.4589241 57.929626,3.307597 57.998466,3.221416 58.003296,3.1194493 57.940956,3.0810286 54.252944,2.9928787 51.44277,3.040703 47.488672,3.0591112 40.537527,15.448393 34.183525,26.794829 28.091554,37.716298 c 4.871872,8.230537 9.7686,16.656054 13.644858,23.307252 z M 4.3840703,43.432603 C 3.4285944,42.999766 2.9120622,42.086443 2.9985728,40.982871 3.0459822,40.380067 3.4682052,39.575632 6.6130154,34.098572 8.5715249,30.687608 10.94804,26.548155 11.894161,24.899786 l 1.720218,-2.997028 -2.517192,-5.169635 C 8.8202094,12.056811 8.5748504,11.484754 8.5260336,10.738416 8.4651797,9.8038846 8.7441154,9.0075901 9.4418626,8.1266246 10.209782,7.1570467 10.059737,7.176435 16.796154,7.176435 c 5.267828,0 6.079695,0.027619 6.445785,0.2165976 0.428167,0.2214111 0.94865,0.7661587 1.338861,1.4012469 0.298743,0.4861878 5.493687,11.5116245 5.820235,12.3524625 0.398091,1.025068 0.239727,1.645687 -0.91278,3.577909 -2.545845,4.396277 -5.457764,9.406371 -7.892844,13.608389 -1.913081,3.301494 -2.732076,4.593225 -3.081098,4.859502 l -0.475358,0.362709 -6.62495,0.0306 c -5.3452947,0.02456 -6.7031805,-0.0053 -7.0299135,-0.153093 z M 27.526978,22.061232 21.855273,10.146146 H 11.552432 l 2.767412,6.017977 c 2.153713,4.683437 2.570808,5.657708 2.504151,5.991007 -3.394769,6.31914 -6.620532,11.904684 -10.1621,17.886776 -0.4348872,0.624033 -0.4994936,0.616529 4.970927,0.579034 l 5.15648,-0.03551 c 3.643609,-6.276112 7.383251,-12.7339 10.737676,-18.524198 z"
       id="path1252"
       sodipodi:nodetypes="cccccccccsccccsccccccccccccccccccssccccsccsccccccccccsccccc" />
  </g>
</svg>
