<svg width="64" height="64" preserveAspectRatio="xMidYMid" version="1.1" viewBox="-9 0 21.92 21.92" xmlns="http://www.w3.org/2000/svg"><g transform="matrix(.080086 0 0 .080086 -8.2633 0)" style="stroke-width:12.487"><path d="m38.885 12.808s-38.94 17.423-38.94 76.86c0 13.611-0.26382 29.885 0.16723 47.143 1.4142 58.127 10.659 115.41 64.401 129.64 24.779 6.5588 46.046 7.9322 63.181 6.9903 31.073-1.7227 48.523-11.088 48.523-11.088l-1.0285-22.543s-22.206 6.9991-47.143 6.1458c-24.707-0.84734-50.789-2.6606-54.786-32.995-0.36905-2.6645-0.55187-5.5199-0.55187-8.5122 0 0 24.249 5.9332 54.986 7.3415 18.795 0.8621 36.424-1.0999 54.326-3.236 34.33-4.0994 67.579-25.256 71.336-44.584 1.6184-8.3239 2.0794-17.987 2.0794-27.159v-47.143c0-59.438-38.949-76.86-38.949-76.86-19.635-9.0181-53.346-12.808-88.805-12.808-35.459 0-69.16 3.7899-88.797 12.808zm48.723 33.346c14.591 0 25.639 5.606 32.945 16.824l7.099 11.907 7.1074-11.907c7.3042-11.218 18.353-16.824 32.945-16.824 12.61 0 22.769 4.4384 30.528 13.086 7.5212 8.6476 11.263 20.335 11.263 35.044v71.969h-28.513v-69.853c0-14.725-6.1953-22.2-18.588-22.2-13.702 0-20.57 8.8664-20.57 26.398v38.229h-28.346v-38.229c0-17.531-6.8676-26.398-20.57-26.398-12.393 0-18.588 7.4751-18.588 22.2v69.853h-28.513v-71.969c0-14.709 3.7488-26.396 11.272-35.044 7.7574-8.6476 17.917-13.086 30.528-13.086z" style="stroke-width:145.44"/></g></svg>
