<?xml version="1.0" encoding="UTF-8" standalone="no"?>
<!-- Created with Inkscape (http://www.inkscape.org/) -->

<svg
   width="64"
   height="64"
   viewBox="0 0 64 64"
   version="1.1"
   id="svg1161"
   inkscape:version="1.2.2 (732a01da63, 2022-12-09)"
   sodipodi:docname="ico_xing.svg"
   xmlns:inkscape="http://www.inkscape.org/namespaces/inkscape"
   xmlns:sodipodi="http://sodipodi.sourceforge.net/DTD/sodipodi-0.dtd"
   xmlns="http://www.w3.org/2000/svg"
   xmlns:svg="http://www.w3.org/2000/svg">
  <sodipodi:namedview
     id="namedview1163"
     pagecolor="#ffffff"
     bordercolor="#111111"
     borderopacity="1"
     inkscape:pageshadow="0"
     inkscape:pageopacity="0"
     inkscape:pagecheckerboard="1"
     inkscape:document-units="px"
     showgrid="false"
     units="px"
     inkscape:zoom="22.627417"
     inkscape:cx="31.532543"
     inkscape:cy="23.599689"
     inkscape:window-width="1920"
     inkscape:window-height="1137"
     inkscape:window-x="1912"
     inkscape:window-y="-8"
     inkscape:window-maximized="1"
     inkscape:current-layer="layer1"
     inkscape:showpageshadow="0"
     inkscape:deskcolor="#d1d1d1" />
  <defs
     id="defs1158" />
  <g
     inkscape:label="Ebene 1"
     inkscape:groupmode="layer"
     id="layer1">
    <path
       style="fill:#000000;stroke:none;stroke-width:3;stroke-miterlimit:4;stroke-dasharray:none"
       d="M 40.425386,64.001043 C 40.32557,64.001058 39.982318,63.618849 39.78947,63.304324 35.039214,55.5569 33.033636,52.081536 28.742397,44.770118 c -3.646403,-6.211624 -3.539268,-6.008159 -3.60754,-6.850868 -0.03892,-0.479325 0.006,-0.944246 0.117162,-1.214872 5.416519,-9.266901 13.270407,-24.676023 19.85706,-35.5007536 0.143724,-0.20399734 0.369552,-0.69256113 0.74089,-0.948046 C 46.221307,9.3527517e-5 46.548425,0 46.548425,0 h 12.612019 c 1.184913,0.02312139 1.850352,1.7983314 1.850352,3.0681245 0,0.8194348 -0.403784,1.4154432 -2.223458,4.850742 L 42.113429,37.686873 c 2.317664,3.984252 4.727381,8.157231 6.811839,11.740269 7.231637,12.426765 6.551097,11.176122 6.551097,12.039245 0,0.775883 -0.618117,1.683906 -0.907392,1.985091 -0.289275,0.301185 -0.479521,0.54747 -0.537988,0.547479 z M 4.3840703,43.432603 C 3.4285944,42.999766 2.9120622,42.086443 2.9985728,40.982871 3.0459822,40.380067 3.4682052,39.575632 6.6130154,34.098572 L 13.614379,21.902758 11.097187,16.733123 C 8.9295844,12.041186 8.5748504,11.484754 8.5260336,10.738416 8.4651797,9.8038846 8.7441154,9.0075901 9.4418626,8.1266246 10.209675,7.1571823 10.901755,7.176435 16.796154,7.176435 c 5.894399,0 6.079695,0.027619 6.445785,0.2165976 0.428167,0.2214111 0.94865,0.7661587 1.338861,1.4012469 0.298743,0.4861878 5.493687,11.5116245 5.820235,12.3524625 0.398091,1.025068 0.239727,1.645687 -0.91278,3.577909 -2.545845,4.396277 -5.457764,9.406371 -7.892844,13.608389 -1.973848,3.279397 -2.758263,4.514407 -3.081098,4.859502 -0.16403,0.17534 -0.293468,0.3629 -0.475358,0.362709 l -6.62495,0.0306 c -5.3452947,0.02456 -6.7031805,-0.0053 -7.0299135,-0.153093 z"
       id="path1252"
       sodipodi:nodetypes="cscccczccscccszcccccccczccscccscccc" />
  </g>
</svg>
