<?xml version="1.0" encoding="UTF-8" standalone="no"?>
<!-- Created with Inkscape (http://www.inkscape.org/) -->

<svg
   width="64"
   height="64"
   viewBox="0 0 64 64"
   version="1.1"
   id="svg828"
   inkscape:version="1.1.1 (3bf5ae0d25, 2021-09-20)"
   sodipodi:docname="ico-researchgate.svg"
   xmlns:inkscape="http://www.inkscape.org/namespaces/inkscape"
   xmlns:sodipodi="http://sodipodi.sourceforge.net/DTD/sodipodi-0.dtd"
   xmlns="http://www.w3.org/2000/svg"
   xmlns:svg="http://www.w3.org/2000/svg">
  <sodipodi:namedview
     id="namedview830"
     pagecolor="#ffffff"
     bordercolor="#111111"
     borderopacity="1"
     inkscape:pageshadow="0"
     inkscape:pageopacity="0"
     inkscape:pagecheckerboard="1"
     inkscape:document-units="px"
     showgrid="false"
     units="px"
     inkscape:zoom="3.7543719"
     inkscape:cx="77.90917"
     inkscape:cy="66.455856"
     inkscape:window-width="1920"
     inkscape:window-height="1017"
     inkscape:window-x="-8"
     inkscape:window-y="-8"
     inkscape:window-maximized="1"
     inkscape:current-layer="layer1" />
  <defs
     id="defs825" />
  <g
     inkscape:label="Ebene 1"
     inkscape:groupmode="layer"
     id="layer1">
    <rect
       style="fill:#00959b;fill-opacity:1;stroke:none;stroke-width:28.6042;stroke-linecap:square;paint-order:markers fill stroke;stop-color:#000000"
       id="rect3987"
       width="64"
       height="64"
       x="-1.110223e-16"
       y="0" />
    <path
       id="rect3030"
       style="fill:#ffffff;fill-opacity:1;stroke:none;stroke-width:9.99999;stroke-linecap:square;paint-order:markers fill stroke;stop-color:#000000"
       d="m 44.927732,9.8749997 c -3.104484,0 -5.091322,1.4818533 -5.898436,4.4003913 -0.320277,1.158122 -0.320277,7.166093 0,8.324217 0.634696,2.295061 1.922067,3.646367 4.003905,4.207032 0.870308,0.234383 2.618014,0.23907 3.505859,0.0078 1.528139,-0.398029 2.640687,-1.214114 3.392579,-2.486328 0.642232,-1.086663 0.867433,-2.265811 0.875,-4.578125 l 0.0059,-1.9375 h -2.875 -2.875 l -0.03711,0.917969 c -0.02305,0.569055 0.01886,0.984666 0.109375,1.09375 0.110662,0.133403 0.50938,0.175793 1.648397,0.175793 h 1.501953 l -0.06836,1.03125 c -0.08402,1.252121 -0.346745,2.017904 -0.878906,2.572266 -0.591916,0.616625 -1.282248,0.92635 -2.226563,0.99414 -1.677245,0.120405 -2.996879,-0.707608 -3.443358,-2.160156 -0.332901,-1.082992 -0.342567,-6.886889 -0.01367,-7.949219 0.262639,-0.847894 0.975798,-1.697328 1.749999,-2.083983 0.63668,-0.317972 1.801669,-0.37793 2.613281,-0.134766 0.62253,0.186516 1.395523,0.851215 1.806641,1.552735 0.17794,0.303602 0.358117,0.552733 0.398437,0.552733 0.226129,0 2.067563,-0.836714 2.115235,-0.960937 C 50.4261,13.18418 49.755894,12.124372 49.11328,11.478516 48.094269,10.454362 46.580493,9.8749997 44.927732,9.8749997 Z M 23.730468,19.947265 c -1.446121,-0.0049 -3.309785,0.006 -5.767578,0.02148 l -4.974609,0.03125 0.03711,0.775391 0.03711,0.777343 0.8125,0.158204 c 1.491136,0.291889 1.867856,0.434662 2.230468,0.847656 0.654002,0.744868 0.660076,0.888983 0.61914,13.316406 l -0.03711,11.437499 -0.300781,0.609375 C 16.039871,48.626494 15.56495,48.892619 14.25,49.121092 12.939509,49.348808 12.999996,49.301431 13,50.10156 v 0.710938 h 6.124999 6.125 v -0.71875 c 0,-0.395312 -0.01879,-0.71875 -0.04102,-0.71875 -0.307918,0 -2.877412,-0.413334 -3.179687,-0.511719 -0.481009,-0.156548 -0.945216,-0.72842 -1.158203,-1.425781 -0.104391,-0.341783 -0.171165,-2.078664 -0.212891,-5.48828 l -0.0625,-4.988281 0.859375,0.08203 c 0.471731,0.04456 1.318525,0.08154 1.882813,0.08203 h 1.02539 l 0.337891,0.59375 c 2.372327,4.170265 5.006159,8.16114 6.851562,10.384765 1.779761,2.14453 3.900816,3.136661 6.697266,3.130859 0.721875,-0.0015 1.537502,-0.07175 1.8125,-0.154297 l 0.5,-0.15039 0.03711,-0.714844 c 0.03591,-0.686731 0.02592,-0.714842 -0.269528,-0.714842 -0.606074,0 -1.82505,-0.478089 -2.695312,-1.056641 -1.519518,-1.010169 -3.863535,-3.747825 -6.390625,-7.466796 -1.052296,-1.5486 -2.744141,-4.270338 -2.744141,-4.414062 0,-0.02305 0.295294,-0.137724 0.65625,-0.253906 2.088907,-0.672401 4.180253,-2.499129 5.21875,-4.558594 1.188711,-2.357354 1.222318,-5.170833 0.0918,-7.478516 -0.740908,-1.512522 -2.412899,-2.919827 -4.269531,-3.59375 -1.552332,-0.563465 -2.128434,-0.71587 -6.466797,-0.730468 z m -1.285157,2.296875 c 1.442181,-0.0056 3.388738,0.07138 4.029297,0.203125 2.326103,0.4784 3.901916,1.938075 4.392579,4.066406 0.198689,0.861822 0.161499,2.968172 -0.06641,3.74414 -0.677582,2.306839 -2.336635,3.784233 -4.826172,4.294922 -0.967298,0.198426 -3.722461,0.247777 -4.787109,0.08594 l -0.5,-0.07617 -0.02734,-6.056641 c -0.02154,-4.664436 0.0072,-6.079478 0.125,-6.154297 0.111104,-0.07058 0.794848,-0.10408 1.660156,-0.107421 z"
       sodipodi:nodetypes="sssssscccccssccssccsscssssssccccsccccscccsscsccccccsscccsssscscssssscsccccs" />
  </g>
</svg>
