<?xml version="1.0" encoding="UTF-8" standalone="no"?>
<!-- Created with Inkscape (http://www.inkscape.org/) -->

<svg
   width="64"
   height="64"
   viewBox="0 0 16.933333 16.933333"
   version="1.1"
   id="svg1161"
   inkscape:version="1.1.1 (3bf5ae0d25, 2021-09-20)"
   sodipodi:docname="ico_xing.svg"
   xmlns:inkscape="http://www.inkscape.org/namespaces/inkscape"
   xmlns:sodipodi="http://sodipodi.sourceforge.net/DTD/sodipodi-0.dtd"
   xmlns="http://www.w3.org/2000/svg"
   xmlns:svg="http://www.w3.org/2000/svg">
  <sodipodi:namedview
     id="namedview1163"
     pagecolor="#ffffff"
     bordercolor="#111111"
     borderopacity="1"
     inkscape:pageshadow="0"
     inkscape:pageopacity="0"
     inkscape:pagecheckerboard="1"
     inkscape:document-units="px"
     showgrid="false"
     units="px"
     inkscape:zoom="3.7543719"
     inkscape:cx="33.427695"
     inkscape:cy="77.642813"
     inkscape:window-width="1920"
     inkscape:window-height="1017"
     inkscape:window-x="-8"
     inkscape:window-y="-8"
     inkscape:window-maximized="1"
     inkscape:current-layer="layer1" />
  <defs
     id="defs1158" />
  <g
     inkscape:label="Ebene 1"
     inkscape:groupmode="layer"
     id="layer1">
    <path
       style="fill:#000000;stroke-width:0.999995"
       d="m 10.696656,16.899259 c -0.01965,-0.01766 -0.09538,-0.08512 -0.168311,-0.150054 -1.2889483,-2.032082 -1.788101,-2.970392 -2.9238849,-4.905542 -0.965112,-1.644062 -0.936756,-1.59021 -0.954826,-1.813254 -0.0103,-0.126865 0.0016,-0.249918 0.03101,-0.321546 C 8.1142615,7.2561454 10.19299,3.177735 11.936313,0.3126987 11.974353,0.2587057 12.075605,0.1662636 12.161357,0.1072656 L 12.317272,-1.9687533e-7 C 13.426687,0.02989621 14.55192,-0.0501421 15.655359,0.0339328 c 0.383323,0.3014465 0.489742,0.4692544 0.489742,0.7722526 0,0.23446 0.0016,0.2309933 -0.588494,1.2838704 -1.449679,2.6022064 -2.580529,4.5943486 -3.98944,7.1191722 l -0.423728,0.759677 0.202543,0.347875 c 0.1114,0.191331 0.34163,0.589035 0.511628,0.883785 0.169983,0.294752 0.659936,1.138814 1.088753,1.875696 1.914034,3.289055 1.733912,2.958041 1.733912,3.186488 0,0.205357 -0.09731,0.418258 -0.240164,0.525404 -0.05456,0.04095 -0.11865,0.0907 -0.142392,0.110554 -0.05473,0.04581 -3.549915,0.04634 -3.601053,5.5e-4 z m 3.063032,-0.770676 c 0.01202,-0.01202 -0.0917,-0.217287 -0.230362,-0.456279 -0.94752,-1.633132 -2.211622,-3.809055 -2.369533,-4.078738 -0.921328,-1.573403 -0.87868,-1.492152 -0.86258,-1.643464 0.0096,-0.08977 0.104958,-0.302346 0.256545,-0.571639 0.369593,-0.656563 1.347744,-2.403329 2.090688,-3.7335236 1.381589,-2.4736422 2.653307,-4.7353191 2.685146,-4.7753716 0.01822,-0.02281 0.0195,-0.049798 0.003,-0.059967 C 14.356466,0.7862697 13.612683,0.7989276 12.566132,0.8037998 10.726337,4.0829336 9.0445909,7.0860523 7.4321981,9.976693 l 0.08151,0.129582 c 1.3605336,2.317018 2.2862605,3.905222 3.5299439,6.039266 0.904524,-0.0028 1.814159,0.0154 2.715978,-0.01708 z M 1.1574183,11.489656 C 0.90452765,11.375095 0.76781445,11.133361 0.79071165,10.841273 0.80325975,10.681726 0.91501165,10.468812 1.7473645,9.019171 2.2657331,8.116374 2.8947373,7.020764 3.145152,6.5844817 L 3.600451,5.7912432 2.9342128,4.4229698 C 2.3315537,3.1852666 2.2666133,3.0338573 2.2536927,2.8363202 2.2375862,2.5889731 2.3114135,2.3782138 2.4960898,2.1450442 2.6993389,1.8884211 2.6596256,1.8935527 4.4425874,1.8935527 c 1.3942627,0 1.6091437,0.00731 1.7060387,0.057328 0.113325,0.058602 0.251084,0.2027831 0.354363,0.3708751 0.07907,0.1286818 1.454042,3.04684 1.540471,3.2693888 0.105365,0.27131 0.06345,0.4355724 -0.24159,0.9469834 C 7.1280485,7.7017129 6.3573362,9.0277598 5.712831,10.139929 5.2064863,11.013752 4.9897188,11.355641 4.8973413,11.426118 l -0.1258155,0.096 -1.7534592,0.0081 c -1.4147661,0.0065 -1.7741646,-0.0014 -1.8606427,-0.04052 z M 7.2827691,5.8331873 6.5765731,4.3367596 C 6.1881661,3.5137241 5.8504041,2.8041581 5.8259951,2.7599442 l -0.044385,-0.080383 c -0.8741093,-0.00227 -2.5587629,-0.0046 -2.7269053,0.056746 -0.01311,0.034308 0.2624459,0.6413952 0.6973738,1.5360625 0.5965183,1.2270639 0.7155201,1.4974542 0.6978777,1.58567 -0.8985108,1.6725188 -1.75229,3.1508731 -2.6896546,4.7341833 -0.1151038,0.165166 -0.1322035,0.16318 1.3156805,0.153256 l 1.3647916,-0.0094 C 5.4356919,9.0226185 6.4772299,7.2236447 7.2827691,5.8331873 Z"
       id="path1252"
       sodipodi:nodetypes="cccccccccscccsccsccccccccccccccccccccssccccsccsccccccccscccsccccc" />
  </g>
</svg>
