<?xml version="1.0" encoding="UTF-8" standalone="no"?>
<svg
   width="450"
   height="450"
   version="1.1"
   id="svg107"
   sodipodi:docname="logo.svg"
   inkscape:version="1.1.1 (3bf5ae0d25, 2021-09-20)"
   xmlns:inkscape="http://www.inkscape.org/namespaces/inkscape"
   xmlns:sodipodi="http://sodipodi.sourceforge.net/DTD/sodipodi-0.dtd"
   xmlns="http://www.w3.org/2000/svg"
   xmlns:svg="http://www.w3.org/2000/svg">
  <sodipodi:namedview
     id="namedview109"
     pagecolor="#ffffff"
     bordercolor="#111111"
     borderopacity="1"
     inkscape:pageshadow="0"
     inkscape:pageopacity="0"
     inkscape:pagecheckerboard="1"
     showgrid="false"
     inkscape:zoom="1.1615173"
     inkscape:cx="154.53924"
     inkscape:cy="331.89346"
     inkscape:window-width="1920"
     inkscape:window-height="1017"
     inkscape:window-x="-8"
     inkscape:window-y="-8"
     inkscape:window-maximized="1"
     inkscape:current-layer="g105" />
  <defs
     id="defs57">
    <filter
       id="filter4978"
       x="-0.074233342"
       y="-0.073441353"
       width="1.1793972"
       height="1.1774833"
       style="color-interpolation-filters:sRGB">
      <feFlood
         flood-color="rgb(0,0,0)"
         flood-opacity=".5"
         result="flood"
         id="feFlood2" />
      <feComposite
         in="flood"
         in2="SourceGraphic"
         operator="in"
         result="composite1"
         id="feComposite4" />
      <feGaussianBlur
         result="blur"
         stdDeviation="2"
         id="feGaussianBlur6" />
      <feOffset
         dx="2"
         dy="2"
         result="offset"
         id="feOffset8" />
      <feComposite
         in="SourceGraphic"
         in2="offset"
         result="composite2"
         id="feComposite10" />
    </filter>
    <filter
       id="filter4990"
       x="-0.065606099"
       y="-0.065590471"
       width="1.1585481"
       height="1.1585103"
       style="color-interpolation-filters:sRGB">
      <feFlood
         flood-color="rgb(0,0,0)"
         flood-opacity=".5"
         result="flood"
         id="feFlood13" />
      <feComposite
         in="flood"
         in2="SourceGraphic"
         operator="in"
         result="composite1"
         id="feComposite15" />
      <feGaussianBlur
         result="blur"
         stdDeviation="2"
         id="feGaussianBlur17" />
      <feOffset
         dx="2"
         dy="2"
         result="offset"
         id="feOffset19" />
      <feComposite
         in="SourceGraphic"
         in2="offset"
         result="composite2"
         id="feComposite21" />
    </filter>
    <filter
       id="filter5002"
       x="-0.030256488"
       y="-0.045351514"
       width="1.0731198"
       height="1.1095995"
       style="color-interpolation-filters:sRGB">
      <feFlood
         flood-color="rgb(0,0,0)"
         flood-opacity=".5"
         result="flood"
         id="feFlood24" />
      <feComposite
         in="flood"
         in2="SourceGraphic"
         operator="in"
         result="composite1"
         id="feComposite26" />
      <feGaussianBlur
         result="blur"
         stdDeviation="2"
         id="feGaussianBlur28" />
      <feOffset
         dx="2"
         dy="2"
         result="offset"
         id="feOffset30" />
      <feComposite
         in="SourceGraphic"
         in2="offset"
         result="composite2"
         id="feComposite32" />
    </filter>
    <filter
       id="filter5014"
       x="-0.025085276"
       y="-0.049061061"
       width="1.0606228"
       height="1.1185642"
       style="color-interpolation-filters:sRGB">
      <feFlood
         flood-color="rgb(0,0,0)"
         flood-opacity=".5"
         result="flood"
         id="feFlood35" />
      <feComposite
         in="flood"
         in2="SourceGraphic"
         operator="in"
         result="composite1"
         id="feComposite37" />
      <feGaussianBlur
         result="blur"
         stdDeviation="2"
         id="feGaussianBlur39" />
      <feOffset
         dx="2"
         dy="2"
         result="offset"
         id="feOffset41" />
      <feComposite
         in="SourceGraphic"
         in2="offset"
         result="composite2"
         id="feComposite43" />
    </filter>
    <filter
       id="filter5026"
       x="-0.029824225"
       y="-0.042722084"
       width="1.0720752"
       height="1.103245"
       style="color-interpolation-filters:sRGB">
      <feFlood
         flood-color="rgb(0,0,0)"
         flood-opacity=".5"
         result="flood"
         id="feFlood46" />
      <feComposite
         in="flood"
         in2="SourceGraphic"
         operator="in"
         result="composite1"
         id="feComposite48" />
      <feGaussianBlur
         result="blur"
         stdDeviation="2"
         id="feGaussianBlur50" />
      <feOffset
         dx="2"
         dy="2"
         result="offset"
         id="feOffset52" />
      <feComposite
         in="SourceGraphic"
         in2="offset"
         result="composite2"
         id="feComposite54" />
    </filter>
  </defs>
  <g
     transform="translate(0,-668.97)"
     id="g105">
    <rect
       x="50"
       y="718.96997"
       width="350"
       height="350"
       style="fill:none;stroke:#08083f;stroke-width:4;stroke-miterlimit:4;stroke-dasharray:none;stroke-opacity:1"
       id="rect59" />
    <path
       transform="scale(1.0667)"
       d="m 188.54,676.37 c 0,0 -6.1902,13.936 -11.387,18.139 -2.513,2.0326 -4.109,4.5886 -40.406,23.234 -0.9483,0.48711 -0.84486,2.2859 -1.2627,3.5355 -0.35788,3.1385 -0.0676,4.8587 0.31564,6.8501 0.43211,2.0271 1.0256,3.5055 1.9808,5.0744 1.2614,2.0719 2.6606,3.7716 4.5852,5.2481 4.127,2.4282 8.263,4.8075 12.595,5.9031 2.5633,0.62089 5.1282,0.86546 7.7656,0.88388 2.909,0.0203 5.8565,-0.31067 8.7441,-0.66291 5.228,-0.63772 10.132,-1.8491 15.279,-2.9673 5.1274,-1.114 10.317,-2.5027 15.219,-4.3754 3.0252,-1.1559 6.6695,-2.6998 9.2744,-4.6388 7.3541,-5.4742 16.355,-16.509 21.974,-23.753 8.5545,-11.028 25.413,-18.963 35.229,-33.461 6.7311,-9.942 18.12,-30.936 18.12,-30.936 l 0.0631,6.3766 -7.6393,19.445 -17.488,26.201 -11.617,16.289 c 0,0 -19.877,19.959 -26.516,26.453 -2.5766,2.5203 -7.955,6.1872 -7.955,6.1872 l -3.5355,1.6415 -9.9121,4.1669 c 0,0 -14.989,4.0533 -22.665,5.0508 -4.2606,0.55367 -8.584,0.59764 -12.879,0.50507 -4.0956,-0.0883 -8.2842,0.0239 -12.248,-1.0102 -4.6109,-1.2029 -9.9592,-3.2403 -13.89,-5.9346 -4.2225,-2.8946 -6.4382,-4.1373 -9.2808,-8.1444 -1.4269,-2.0114 -3.3683,-6.8439 -4.23,-9.1545 -0.53687,-1.4396 -1.015,-2.8491 -1.0733,-4.4826 -0.19769,-5.5375 1.7236,-10.469 4.23,-14.837 1.941,-3.3825 8.0812,-8.46 8.0812,-8.46 l 17.04,-16.802 8.6161,-9.7699 z"
       style="filter:url(#filter5026)"
       id="path61" />
    <path
       transform="scale(1.0667)"
       d="m 363.75,935.41 c -20.468,-10.519 -27.964,-13.242 -42.234,-15.339 -13.244,-1.9463 -14.208,-1.9585 -28.735,-0.36433 -25.34,2.7808 -57.863,-0.0461 -74.773,-6.4994 -4.3297,-1.6523 -11.699,-9.0531 -14.481,-14.542 -4.5598,-8.9983 -4.1425,-21.012 0.99458,-28.634 4.2753,-6.344 18.872,-15.651 30.229,-19.274 15.038,-4.7971 57.373,-10.116 75.5,-9.4864 9.4066,0.32691 11.021,0.66656 15.5,3.2616 13.075,7.5747 17.128,8.5198 36.691,8.5534 6.43,0.0111 11.941,0.42478 12.247,0.91937 0.30567,0.49459 -0.99303,2.2591 -2.886,3.9212 -7.0676,6.2054 -25.874,5.4014 -41.446,-1.7719 -13.776,-6.346 -17.665,-6.7405 -45.762,-4.6428 -34.881,2.6042 -55.492,7.59 -63.712,15.412 -6.5964,6.2772 -8.8616,13.778 -6.9886,23.143 0.8534,4.267 2.4431,4.6788 8.313,2.1536 6.1404,-2.6415 10.563,-2.6616 20.065,-0.091 14.734,3.9862 26.348,8.8476 32.908,13.775 3.4173,2.5668 3.497,2.5755 25,2.745 20.549,0.16196 22.141,0.31628 33.572,3.2535 6.6,1.6959 16.275,4.0548 21.5,5.2419 7.0991,1.6129 12.659,3.8042 22,8.6708 14.295,7.4478 16.158,8.7947 13.362,9.6615 -3.4152,1.0586 -16.469,3.6292 -18.177,3.5794 -0.92654,-0.027 -4.8346,-1.6681 -8.6846,-3.6467 z"
       style="fill:#151515;filter:url(#filter5014)"
       id="path63" />
    <path
       transform="scale(1.0667)"
       d="m 182.57,856.48 c -2.5567,-0.66119 -1.9656,-0.8845 4,-1.5112 22.269,-2.3394 32.049,-4.3852 39.946,-8.3558 8.6806,-4.3643 20.196,-17.59 26.776,-30.754 4.7649,-9.5318 9.7513,-28.52 8.4085,-32.019 -9.2094,-5.2096 -16.16,-10.158 -26.241,-11.713 -11.917,-1.5875 -23.735,-0.25327 -35.981,2.4612 -21.129,4.6833 -40.076,19.065 -40.45,19.296 -2.9223,1.8061 -19.959,35.012 -19.959,38.902 0,2.4972 -4.5716,6.5725 -7.3728,6.5725 -6.0825,0 -7.0589,-2.1451 -3.1117,-6.8361 1.3835,-1.6442 4.0928,-6.9019 6.0205,-11.684 1.9277,-4.7818 4.6208,-10.598 5.9845,-12.925 3.7925,-6.4713 2.9684,-7.4447 -2.1281,-2.5134 l -4.6076,4.4582 2.0388,-4 c 4.1061,-8.0559 15.924,-23.104 22.382,-28.5 14.737,-12.313 29.25,-19.614 48.78,-24.541 7.2411,-1.8266 40.841,-2.4277 46.814,-0.83754 4.8513,1.2914 4.0269,2.731 -2.2884,3.9961 -5.9247,1.1868 -7.6824,2.078 -5.4042,2.7399 19.138,5.5606 38.209,13.33 38.677,15.756 0.20603,1.0698 -1.9527,2.9494 -6.4873,5.6482 l -6.7961,4.0448 -2.4428,10.847 c -1.7512,7.7756 -3.9324,13.819 -7.7041,21.347 -13.72,27.381 -32.187,39.122 -63.535,40.396 -6.775,0.27536 -13.668,0.15154 -15.318,-0.27516 z"
       style="fill:#151515;filter:url(#filter5002)"
       id="path95" />
    <path
       transform="scale(1.0667)"
       d="m 172.61,794.43 c -10.089,17.475 -4.0837,39.887 13.391,49.976 17.475,10.089 39.887,4.0836 49.976,-13.391 10.089,-17.475 4.1003,-39.916 -13.374,-50.005 -17.475,-10.089 -39.904,-4.0548 -49.993,13.42 z m 1.6705,1.1477 c 8.6484,-14.979 30.677,-18.599 45.656,-9.9506 14.98,8.6484 18.286,26.939 9.6373,41.919 -8.6484,14.98 -24.946,20.267 -39.926,11.618 -14.979,-8.6484 -24.017,-28.607 -15.368,-43.586 z"
       style="color:#000000;text-indent:0;text-decoration-line:none;text-transform:none;filter:url(#filter4990)"
       id="path97" />
    <path
       transform="scale(1.0667)"
       d="m 230.34,828.48 c 0,0 -4.3893,2.198 -8.3668,4.5744 -3.9494,2.3597 -7.6594,4.9683 -7.4087,4.9247 -0.0602,0.0105 3.6698,-3.4356 7.9383,-7.2368 4.1643,-3.7085 9.3197,-8.1149 9.9001,-10.56 0.64654,-2.7235 -7.8816,0.323 -15.518,4.7893 -7.607,4.4493 -14.009,10.401 -14.066,10.388 -0.36243,-0.0808 5.5208,-5.7807 12.539,-11.081 7.046,-5.3219 15.486,-10.204 15.453,-11.665 -0.0175,-0.77485 -3.0393,-0.008 -7.3266,1.8263 -4.4121,1.8878 -9.5411,4.6413 -14.533,8.0265 -5.0352,3.4144 -9.0868,6.8888 -12.205,9.9838 -2.9892,2.9671 -4.6788,5.1465 -4.5892,5.1881 0.0941,0.0437 7.4715,-8.4879 17.217,-16.01 9.7455,-7.5221 22.006,-13.948 21.692,-15.705 -0.1631,-0.91156 -3.3905,-0.29095 -7.9017,1.3844 -4.6348,1.7212 -10.025,4.3323 -15.264,7.5538 -5.2988,3.2585 -9.5721,6.5925 -12.918,9.5631 -3.2027,2.8437 -5.0926,4.9173 -5.11,4.902 -0.0468,-0.0412 2.0164,-2.5063 5.6059,-5.9188 3.7848,-3.5983 8.568,-7.5844 14.668,-11.756 6.2187,-4.2531 12.007,-7.495 17.543,-10.515 5.1512,-2.8104 8.8074,-4.7602 8.4781,-5.5942 -0.33377,-0.84541 -4.5862,-0.21907 -10.398,1.5094 -5.9858,1.7801 -12.848,4.4957 -19.475,7.965 -6.6784,3.4958 -12.041,7.1816 -16.139,10.528 -3.9265,3.2073 -6.1627,5.6764 -6.0637,5.8455 0.0749,0.12804 2.3066,-1.9497 5.9949,-4.9343 3.9108,-3.1646 8.6651,-6.6639 14.721,-10.384 6.1404,-3.7716 11.779,-6.6544 17.118,-9.2963 4.9662,-2.4571 8.4378,-4.116 8.0758,-4.6938 -0.36981,-0.59021 -4.8463,0.26906 -10.891,2.2285 -6.2565,2.0281 -13.314,4.9471 -20.172,8.663 -6.9005,3.7391 -12.373,7.6111 -16.6,11.113 -4.0329,3.341 -6.3627,5.8752 -6.3445,5.9333 6.9e-4,0.002 2.2379,-2.3303 6.0262,-5.5899 3.9975,-3.4396 8.9778,-7.2315 15.295,-11.175 6.4009,-3.9962 12.389,-7.0513 17.969,-9.7821 5.2113,-2.5501 8.8353,-4.2374 8.3429,-4.783 -1.1192,-1.2397 -14.069,2.4134 -24.84,7.4268 -10.974,5.1081 -19.365,11.415 -19.376,11.825 -0.002,0.0877 8.4687,-6.3595 18.471,-11.966 9.9904,-5.5996 21.417,-10.454 19.819,-11.55 -1.9219,-1.3189 -13.141,1.4116 -22.661,5.1985 -9.6781,3.8498 -17.223,8.5912 -17.311,8.8158 0.10829,-0.27675 7.3125,-4.8022 15.551,-9.0111 8.11,-4.143 16.688,-7.7049 14.597,-8.2684 -2.4,-0.64661 -7.4123,0.5574 -11.864,2.3056 -4.5112,1.7716 -8.2202,3.9992 -9.1111,5.0442 -0.5803,0.68063 5.6088,-2.4319 12.087,-5.4461 6.3645,-2.9615 12.649,-5.6815 8.887,-5.61 -4.2293,0.0805 -9.8882,1.9422 -14.469,4.0213 -4.5189,2.0508 -7.7703,4.2145 -7.7703,4.2145 0,0 4.6466,-1.7786 9.2628,-3.3774 4.6088,-1.5963 9.0756,-3.0108 7.5991,-2.9614 -1.1727,0.0392 -5.93,1.7202 -10.71,4.2201 -4.8931,2.5592 -9.3643,5.7346 -11.417,8.5366 -2.2573,3.0808 3.2157,0.3288 9.2208,-2.5726 6.2151,-3.0028 13.457,-6.2863 13.048,-6.395 -0.41192,-0.10934 -8.34,2.6679 -15.706,6.7308 -7.5564,4.1677 -13.836,9.3021 -14.882,12.671 -1.0554,3.4022 7.2379,-1.8202 17.406,-6.7531 10.205,-4.9507 22.637,-9.6281 22.91,-9.4405 0.20475,0.14043 -11.19,4.3734 -20.842,10.213 -9.8618,5.9665 -17.392,13.138 -17.318,15.761 0.0369,1.3184 2.2777,0.23041 5.7986,-1.8782 4.2408,-2.5398 7.8168,-4.8924 14.034,-8.3116 5.8204,-3.2007 11.159,-5.7468 16.258,-7.983 4.7471,-2.0817 8.1384,-3.3945 8.0234,-3.5207 -0.0509,-0.0559 -3.967,1.254 -9.3253,3.6264 -5.5665,2.4646 -11.867,5.7173 -17.986,9.8562 -6.1041,4.1291 -11.011,8.4602 -14.573,12.528 -3.4368,3.9244 -5.2285,7.1838 -4.8646,8.2257 0.40766,1.1673 2.9662,-0.80914 7.0231,-4.0198 4.4497,-3.5214 9.4152,-7.4274 16.364,-11.813 6.8503,-4.3239 13.478,-7.7316 19.7,-10.574 5.85,-2.6723 10.108,-4.3108 10.022,-4.4447 -0.0444,-0.0692 -3.8259,1.2077 -9.0151,3.5111 -5.3944,2.3945 -11.482,5.5356 -17.42,9.4999 -5.9208,3.9532 -10.676,8.0532 -14.136,11.829 -3.3336,3.6385 -5.0621,6.5589 -4.63,7.2691 0.49555,0.81449 3.037,-1.1682 7.0359,-4.2424 4.3319,-3.3303 9.2426,-7.0173 15.886,-11.043 6.5449,-3.9659 12.936,-7.1254 18.806,-9.6527 5.5742,-2.3998 9.6091,-3.7708 9.6319,-3.7161 0.0528,0.12672 -3.935,1.7314 -9.3622,4.4267 -5.6761,2.819 -11.979,6.396 -18.064,10.931 -6.0442,4.5054 -10.774,9.1525 -14.066,13.392 -3.1734,4.0874 -4.6121,7.3077 -3.8353,7.9882 1.5749,1.3795 9.4531,-6.4335 19.226,-13.352 9.6055,-6.7998 21.459,-12.933 21.507,-12.705 0.015,0.0718 -3.4,1.6808 -8.0214,4.348 -4.8328,2.7893 -10.183,6.3034 -15.326,10.659 -5.1056,4.3246 -9.0849,8.7122 -11.806,12.61 -2.6271,3.7624 -3.7412,6.5957 -2.9078,6.9812 1.8536,0.85765 9.1355,-7.1633 18.19,-14.196 9.0547,-7.033 19.903,-13.065 19.875,-13.559 -0.0318,-0.54192 -10.088,4.7196 -17.524,10.89 -7.5184,6.2387 -12.894,13.759 -10.356,14.305 2.3598,0.50782 8.9173,-4.598 15.702,-9.1098 6.7509,-4.4895 14.075,-8.6482 14.021,-8.3676 -0.0691,0.36497 -7.3653,5.0418 -12.669,10.141 -5.3171,5.1116 -8.7993,10.489 -5.5492,9.8138 3.3631,-0.699 8.3049,-4.6204 12.462,-7.8917 4.2562,-3.349 8.0019,-6.294 8.0019,-6.294 z"
       style="fill:#002dbe;filter:url(#filter4978)"
       id="path99" />
    <path
       d="m 239.09,860.77 c 0,8.521 -6.9076,15.429 -15.429,15.429 -8.521,0 -15.905,-8.0505 -15.905,-16.571 0,-8.521 7.3838,-14.286 15.905,-14.286 8.521,0 15.429,6.9076 15.429,15.429 z"
       id="path101" />
    <path
       d="m 224.74,847.02 c 3.668,0.0271 7.5598,1.3103 9.8593,5.2932 2.2995,3.9829 2.1173,8.812 0.82437,6.0809 -4.995,-10.551 -22.676,-4.9919 -21.476,-6.8814 2.1029,-3.3102 7.3907,-4.5178 10.792,-4.4927 z"
       style="fill:#ffffff;filter:url(#filter4954)"
       id="path103" />
  </g>
</svg>
